# xmcd
#
# Track frame offsets: 
#        150
#        17557
#        35469
#        54016
#        71184
#        88705
#        109519
#        124610
#        139837
#        155674
#        176502
#        194723
#        208377
#        227595
#        241779
#
# Disc length: 3489 seconds
#
# Revision: 0
# Processed by: cddbd v1.5.2PL0 Copyright (c) Steve Scherf et al.
# Submitted via: ExactAudioCopyFreeDBPlugin 1.0
#
DISCID=cc0d9f0f
DTITLE=Brian McKnight - More Than Words
DYEAR=2013
DGENRE=R&B
TTITLE0=Don't Stop
TTITLE1=Letsomebodyluvu
TTITLE2=4th Of July
TTITLE3=Sweeter
TTITLE4=She Doesn't Know
TTITLE5=More Than Words
TTITLE6=Nothing But A Thang
TTITLE7=Livewithoutyou
TTITLE8=Made For Love
TTITLE9=Get U 2 Stay
TTITLE10=Slow
TTITLE11=Another
TTITLE12=Trying Not To Fall Asleep
TTITLE13=Ididntreallymeantoturnout (feat. Brian McKnight Jr.)
TTITLE14=The Front The Back Side (feat. Niko McKnight)
EXTD=
EXTT0=
EXTT1=
EXTT2=
EXTT3=
EXTT4=
EXTT5=
EXTT6=
EXTT7=
EXTT8=
EXTT9=
EXTT10=
EXTT11=
EXTT12=
EXTT13=
EXTT14=
PLAYORDER=
